<?xml version="1.0" encoding="utf-8"?>
<svg viewBox="0 0 1024 1024" xmlns="http://www.w3.org/2000/svg">
  <path opacity="1.000000" stroke="none" d="M 818.684 794.796 C 817.708 797.375 817.305 799.133 816.414 800.588 C 805.437 818.485 801.598 835.092 823.214 848.625 C 828.666 852.039 827.004 857.446 823.816 862.406 C 802.199 896.05 775.394 924.679 742.601 947.723 C 735.294 952.861 729.457 953.337 723.582 945.963 C 721.172 942.934 717.754 940.727 715.196 937.794 C 709.788 931.591 704.458 930.832 697.019 935.181 C 684.657 942.412 671.439 948.188 657.657 952.201 C 649.54 954.562 646.305 959.104 647.142 967.343 C 647.578 971.64 646.892 976.047 647.255 980.359 C 647.979 989.007 643.877 992.629 635.645 994.32 C 594.719 1002.708 553.937 1003.064 512.914 994.695 C 502.688 992.61 499.338 988.149 499.436 978.117 C 499.697 951.233 501.774 957.793 479.65 948.928 C 468.788 944.576 458.013 939.822 447.741 934.248 C 441.418 930.812 437.499 930.75 432.013 936.112 C 412.882 954.805 412.626 954.562 391.65 938.317 C 365.301 917.916 343.373 893.523 324.89 865.802 C 319.283 857.395 318.921 850.935 327.129 844.62 C 328.495 843.573 329.45 841.974 330.848 840.985 C 341.473 833.482 342.982 825.22 336.025 813.564 C 330.551 804.401 327.437 793.651 324.365 783.283 C 321.857 774.811 317.377 770.833 308.517 771.7 C 305.077 772.033 301.559 771.502 298.1 771.728 C 288.896 772.33 284.089 769.159 282.384 759.079 C 275.862 720.546 276.134 682.293 283.866 643.984 C 285.696 634.934 290.448 632.417 299.277 632.433 C 321.804 632.478 321.58 631.998 329.975 610.691 C 333.623 601.432 338.325 592.577 342.742 583.63 C 343.633 581.825 345.391 580.446 346.514 579.139 C 351.617 579.885 353.574 583.52 356.139 586.335 C 366.128 597.313 376.6 607.682 390.527 613.688 C 396.63 616.322 399.08 619.253 395.56 626.578 C 344.326 733.173 408.934 876.015 543.948 898.054 C 648.635 915.143 752.552 837.385 766.043 732.888 C 769.734 704.301 767.93 676.654 759.661 649.332 C 757.053 640.717 758.281 636.253 768.085 635.191 C 785.526 633.302 801.113 625.377 818.546 616.871 C 821.186 634.758 833.65 633.556 845.386 632.465 C 856.027 631.47 860.936 635.395 863.037 646.011 C 870.456 683.499 870.855 720.852 864.223 758.508 C 862.515 768.212 858.656 771.737 848.995 771.724 C 822.192 771.686 827.715 768.886 818.684 794.796 Z" style="fill: rgb(255, 255, 255);" transform="matrix(1.0000000000000002, 0, 0, 1.0000000000000002, 2.2737367544323206e-13, 1.1368683772161603e-13)"/>
  <path opacity="1.000000" stroke="none" d="M 553.054 202.023 C 557.707 203.677 562.153 204.191 564.844 206.637 C 593.76 232.919 631.017 233.099 666.221 238.303 C 695.778 242.677 725.78 244.63 755.796 244.141 C 777.316 243.788 796.652 238.444 812.674 222.657 C 825.674 209.851 836.947 210.65 847.126 223.143 C 855.785 233.768 853.647 252.238 841.885 260.286 C 835.885 264.391 830.896 268.534 828.649 275.568 C 826.382 282.666 822.304 283.255 815.626 280.337 C 790.74 269.46 790.644 269.68 776.827 291.275 C 772.662 292.16 769.427 289.591 765.908 288.093 C 748.654 280.746 744.656 281.901 734.769 297.719 C 732.08 302.019 728.855 303.87 723.924 301.875 C 720.722 300.581 717.593 298.866 714.255 298.184 C 693.116 293.865 687.539 296.639 675.438 318.264 C 633.345 279.638 585.418 273.351 533.546 294.533 C 517.473 301.095 506.819 310.988 502.939 320.378 C 506.253 323.884 509.603 321.265 512.352 319.851 C 538.193 306.548 564.425 309.007 590.79 317.651 C 612.477 324.759 633.377 336.172 657.527 328.197 C 661.258 326.965 663.643 329.799 665.169 333.547 C 671.888 350.066 677.607 353.54 693.035 348.142 C 703.249 344.568 709.481 344.024 713.802 356.35 C 717.169 365.953 726.582 365.882 734.868 361.919 C 745.758 356.711 755.632 351.62 761.548 368.379 C 763.687 374.438 770.424 372.519 775.477 371.411 C 783.624 369.629 790.047 363.992 799.04 359.568 C 804.235 371.488 809.978 382.924 827.609 381.458 C 813.026 403.573 793.483 409.202 772.38 409.817 C 744.169 410.639 715.907 410.07 687.677 409.699 C 657.233 409.299 626.908 410.25 596.842 415.491 C 591.851 416.362 586.597 416.58 579.213 422.373 C 595.804 423.971 609.499 425.768 623.254 426.514 C 648.895 427.901 674.201 431.307 699.154 437.313 C 705.08 438.735 710.858 440.585 715.978 444.068 C 734.962 456.978 737.52 468.448 724.129 486.595 C 710.472 505.107 696.238 523.219 681.718 541.066 C 672.002 553.013 649.121 550.156 641.955 536.691 C 616.414 488.694 561.799 463.274 508.874 475.107 C 501.191 476.827 495.132 476.751 488.525 471.293 C 452.028 441.135 415.226 411.343 378.298 381.71 C 372.16 376.784 370.013 371.935 371.418 363.909 C 383.746 293.621 418.718 242.611 490.333 222.129 C 499.564 219.487 508.005 215.017 516.204 209.993 C 527.157 203.281 538.77 198.757 553.054 202.023 M 542.222 246.355 C 545.9 246.581 549.837 248.24 553.778 243.43 C 549.942 235.906 545.71 228.759 535.121 226.878 C 531.142 235.325 533.336 241.189 542.222 246.355 Z" style="fill: rgb(255, 255, 255);" transform="matrix(1.0000000000000002, 0, 0, 1.0000000000000002, 2.2737367544323206e-13, 1.1368683772161603e-13)"/>
  <path opacity="1.000000" stroke="none" d="M 172.49 682.067 C 138.323 585.492 148.574 493.349 194.288 404.116 C 207.126 379.051 220.955 354.535 237.038 330.887 C 246.22 333.24 252.012 339.288 258.367 344.193 C 272.11 354.809 285.116 366.446 299.336 376.359 C 309.984 383.787 312.641 391.241 305.147 402.099 C 303.242 404.856 301.575 408.089 302.354 412.616 C 313.836 416.485 320.869 411.072 325.049 400.94 C 342.598 406.96 345.473 411.76 340.505 427.601 C 335.066 444.942 328.493 461.76 325.942 480.109 C 322.947 501.658 324.256 522.516 329.618 543.262 C 331.395 550.14 330.337 555.778 327.129 561.875 C 321.071 573.388 314.875 584.934 310.215 597.037 C 306.782 605.969 301.511 608.451 292.536 608.419 C 266.906 608.331 267.112 608.688 261.463 634.42 C 252.138 676.894 250.782 719.441 258.61 762.324 C 262.986 786.296 269.64 792.84 294.118 794.892 C 303.627 795.689 316.178 817.78 311.535 826.046 C 307.521 833.188 302.125 831.761 296.152 828.03 C 239.629 792.781 195.798 746.801 172.49 682.067 M 238.399 682.416 C 243.166 672.089 243.334 661.856 235.207 653.382 C 227.98 645.847 218.794 642.863 206.657 646.818 C 211.98 659.324 216.854 671.226 222.094 682.958 C 227.148 694.271 229.205 694.333 238.399 682.416 M 235.114 449.611 C 247.802 445.94 256.672 438.734 257.745 424.626 C 258.511 414.581 256.34 405.93 245.346 401.165 C 236.721 413.627 231.834 427.463 226.142 440.846 C 223.414 447.249 227.721 449.325 235.114 449.611 M 216.939 525.174 C 215.669 523.439 214.566 521.549 213.1 520.002 C 209.842 516.571 206.376 512.449 201.129 513.924 C 195.239 515.58 196.076 521.309 195.933 525.894 C 195.647 534.921 195.213 543.99 195.789 552.983 C 196.416 562.736 201.316 564.671 209.41 559.09 C 219.009 552.474 222.135 540.431 216.939 525.174 M 295.434 502.461 C 297.178 493.452 295.589 485.635 287.07 479.114 C 279.306 489.926 276.551 501.481 275.036 514.138 C 285.342 516.336 290.583 511.407 295.434 502.461 Z" style="fill: rgb(255, 255, 255);" transform="matrix(1.0000000000000002, 0, 0, 1.0000000000000002, 2.2737367544323206e-13, 1.1368683772161603e-13)"/>
  <path opacity="1.000000" stroke="none" d="M 579.515 551.943 C 583.849 557.114 589.977 559.914 590.629 568.462 C 579.504 568.966 568.627 569.458 555.838 570.036 C 567.546 586.819 583.984 595.884 594.726 609.551 C 593.12 613.949 590.185 613.49 587.745 613.439 C 538.703 612.453 489.636 615.252 440.61 611.094 C 386.757 606.529 347.142 564.571 345.473 510.31 C 344.609 482.11 350.717 456.249 365.419 432.148 C 372.43 432.686 376.447 437.606 381.077 441.229 C 403.654 458.879 426.672 476.031 448.371 494.714 C 459.444 504.252 470.195 504.477 483.106 501.469 C 509.931 495.216 537.008 492.063 564.188 499.736 C 582.96 505.035 599.035 514.214 610.457 532.313 C 596.195 537.639 581.971 532.654 568.06 536.611 C 569.72 543.518 575.285 546.717 579.515 551.943 Z" style="fill: rgb(255, 255, 255);" transform="matrix(1.0000000000000002, 0, 0, 1.0000000000000002, 2.2737367544323206e-13, 1.1368683772161603e-13)"/>
  <path opacity="1.000000" stroke="none" d="M 318.114 332.726 C 312.62 328.584 311.99 323.604 311.864 318.181 C 311.7 311.246 311.082 304.292 303.707 299.012 C 296.224 307.192 288.681 311.855 278.657 301.142 C 272.545 294.616 269.943 289.238 272.8 280.559 C 276.661 268.838 283.001 258.586 289.371 248.227 C 307.792 218.281 326.997 188.71 336.936 154.467 C 345.698 124.286 343.718 93.45 342.083 62.682 C 341.691 55.304 340.606 47.95 342.282 40.648 C 344.592 30.59 349.963 28.361 357.944 35.095 C 363.497 39.78 368.36 45.624 372.392 51.706 C 392.457 81.966 403.606 114.864 405.262 151.652 C 406.517 179.532 406.688 207.063 402.164 234.593 C 400.659 243.745 397.596 252.348 391.961 259.683 C 371.46 286.37 358.582 316.36 352.321 349.315 C 351.917 351.45 351.386 353.585 346.915 355.591 C 338.193 348.689 328.525 341.038 318.114 332.726 M 361.621 234.084 C 359.407 226.282 357.587 218.192 347.341 214.638 C 338.81 229.411 332.394 244.572 327.427 260.685 C 346.658 264.626 358.944 255.285 361.621 234.084 M 374.344 161.951 C 392.681 148.043 391.875 125.746 371.622 116.355 C 364.633 131.623 360.929 147.51 358.999 164.008 C 361.691 164.796 362.997 165.633 364.081 165.403 C 367.007 164.789 369.839 163.722 374.344 161.951 Z" style="fill: rgb(255, 255, 255);" transform="matrix(1.0000000000000002, 0, 0, 1.0000000000000002, 2.2737367544323206e-13, 1.1368683772161603e-13)"/>
  <path opacity="1.000000" stroke="none" d="M 578.372 659.854 C 601.103 685.489 619.283 712.772 626.631 745.851 C 634.867 782.913 627.264 815.298 597.304 840.906 C 572.521 862.084 573.106 861.859 548.591 840.177 C 518.243 813.334 510.625 780.273 520.704 742.496 C 528.537 713.136 543.83 687.476 564.011 664.839 C 567.347 661.097 570.446 654.432 578.372 659.854 Z" style="fill: rgb(208, 158, 113);" transform="matrix(1.0000000000000002, 0, 0, 1.0000000000000002, 2.2737367544323206e-13, 1.1368683772161603e-13)"/>
  <path opacity="1.000000" stroke="none" d="M 375.301 419.723 C 324.179 379.233 273.93 339.122 223.299 299.501 C 199.044 280.517 189.988 256.307 194.253 226.168 C 198.144 198.688 209.776 175.636 231.829 158.564 C 242.67 150.171 254.532 143.148 268.887 151.11 C 283.077 158.976 290.431 174.939 288.467 192.045 C 286.915 205.557 282.777 218.235 277.808 230.821 C 271.116 247.755 263.121 264.17 258.385 281.901 C 255.252 293.633 259.01 302.21 267.908 309.411 C 324.988 355.579 382.081 401.727 439.118 447.946 C 451.767 458.197 464.213 468.699 477.335 479.57 C 467.856 487.656 460.767 487.708 452.57 481.066 C 427.259 460.558 401.564 440.524 375.301 419.723 M 220.139 249.419 C 226.585 220.446 240.52 194.668 258.482 168.652 C 250.194 169.051 247.245 171.671 244.769 174.671 C 228.528 194.371 217.595 216.725 211.984 241.626 C 211.33 244.528 211.056 247.815 211.735 250.654 C 213.57 258.334 216.535 255.935 220.139 249.419 Z" style="fill: rgb(255, 255, 255);" transform="matrix(1.0000000000000002, 0, 0, 1.0000000000000002, 2.2737367544323206e-13, 1.1368683772161603e-13)"/>
  <path opacity="1.000000" stroke="none" d="M 760.145 622.169 C 754.882 623.055 750.519 624.5 746.419 619.763 C 749.318 606.209 762.703 598.184 767.28 584.459 C 755.556 578.592 741.97 584.876 729.443 577.779 C 738.246 563.806 752.412 554.951 761.329 540.17 C 745.586 534.438 728.996 540.714 714.534 534.85 C 712.364 530.205 715.256 527.763 717.295 525.086 C 726.507 512.99 736.317 501.301 744.784 488.706 C 750.874 479.65 758.146 477.466 768.15 479.745 C 782.665 483.056 796.578 487.646 808.98 496.148 C 850.303 524.476 849.606 578.329 807.515 605.759 C 793.412 614.95 777.699 619.608 760.145 622.169 Z" style="fill: rgb(255, 255, 255);" transform="matrix(1.0000000000000002, 0, 0, 1.0000000000000002, 2.2737367544323206e-13, 1.1368683772161603e-13)"/>
  <path opacity="1.000000" stroke="none" d="M 521.41 836.006 C 464.886 813.313 456.834 799.898 462.668 740.148 C 464.632 720.02 462.282 700.38 453.132 681.788 C 475.823 678.664 495.756 698.792 491.666 719.323 C 489.467 730.36 487.191 741.41 485.676 752.552 C 481.366 784.273 494.371 808.181 519.656 826.445 C 523.363 829.126 528.447 830.479 530.033 835.74 C 527.685 839.906 524.847 837.016 521.41 836.006 Z" style="fill: rgb(208, 158, 113);" transform="matrix(1.0000000000000002, 0, 0, 1.0000000000000002, 2.2737367544323206e-13, 1.1368683772161603e-13)"/>
  <path opacity="1.000000" stroke="none" d="M 684.556 711.077 C 683.261 725.207 683.572 738.128 685.267 751.136 C 691.435 798.515 660.985 836.19 616.658 836.312 C 616.978 830.862 621.899 829.831 625.231 827.548 C 656.32 806.25 667.773 777.358 659.348 740.568 C 657.896 734.237 656.866 727.806 655.726 721.404 C 651.601 698.245 665.781 682.003 691.703 681.382 C 689.365 691.069 687.087 700.513 684.556 711.077 Z" style="fill: rgb(208, 158, 113);" transform="matrix(1.0000000000000002, 0, 0, 1.0000000000000002, 2.2737367544323206e-13, 1.1368683772161603e-13)"/>
  <path opacity="1.000000" stroke="none" d="M 519.28 725.451 C 506.655 756.111 505.416 785.846 521.4 817.22 C 509.043 814.213 505.451 805.841 500.998 799.132 C 488.988 781.021 487.369 761.099 492.905 740.42 C 499.351 716.339 503.669 692.154 497.736 667.251 C 497.489 666.208 498.422 664.88 499.09 662.802 C 512.208 663.583 523.046 669.056 532.591 677.606 C 538.065 682.512 537.562 688.156 534.567 694.155 C 529.524 704.242 524.581 714.376 519.28 725.451 Z" style="fill: rgb(208, 158, 113);" transform="matrix(1.0000000000000002, 0, 0, 1.0000000000000002, 2.2737367544323206e-13, 1.1368683772161603e-13)"/>
  <path opacity="1.000000" stroke="none" d="M 653.78 742.054 C 658.123 769.76 655.267 794.349 633.699 813.511 C 632.128 814.91 630.894 816.938 627.408 815.559 C 627.414 806.117 633.504 798.191 635.348 789.058 C 642.107 755.614 629.752 726.766 614.474 698.613 C 606.537 683.984 606.93 680.454 621.277 671.913 C 629.306 667.131 637.652 662.515 649.733 663.564 C 640.6 690.543 648.104 715.655 653.78 742.054 Z" style="fill: rgb(208, 158, 113);" transform="matrix(1.0000000000000002, 0, 0, 1.0000000000000002, 2.2737367544323206e-13, 1.1368683772161603e-13)"/>
</svg>